<?xml version="1.0" encoding="UTF-8"?>
<svg xmlns="http://www.w3.org/2000/svg" xml:space="preserve" viewBox="0 09 262 227" width="310" height="310">
  <defs>
    <style>
      .cls-1 {
        fill: #888989; <!-- Wheel metals -->
      }
      .cls-2 {
        fill: #COLOR_1; <!-- Front -->
      }
      .cls-3 {
        fill: #COLOR_2; <!-- Border -->
      }
      .cls-4 {
        fill: #COLOR_4; <!-- support -->
      }
      .cls-5 {
        fill: #1d1d1b; <!-- Tires -->
      }
      .cls-6 {
        fill: #COLOR_5; <!-- Saum -->
      }
    </style>
  </defs>
  <g>
    <path class="cls-1" d="m52.2,154.97h13.53v12.92c0,.89-.72,1.61-1.61,1.61h-10.31c-.89,0-1.61-.72-1.61-1.61v-12.92h0Z"/>
    <path class="cls-1" d="m176.69,154.97h13.53v12.91c0,.89-.72,1.61-1.61,1.61h-10.3c-.89,0-1.61-.72-1.61-1.61v-12.91h0Z"/>
      <path class="cls-3" d="m196.54,154.97H49.05c-7.23,0-13.14-2.62-13.34-5.9L27.9,18.78h188.48l-6.49,130.26c-.16,3.3-6.09,5.93-13.34,5.93Z"/>
      <path class="cls-2" d="m187.27,149.82H57.27c-6.37,0-11.58-2.52-11.75-5.68l-6.89-125.37h166.12l-5.72,125.34c-.14,3.17-5.37,5.71-11.76,5.71Z"/>
      <path class="cls-4" d="m7.3,18.77h21.15s.74,16.86,1.07,16.01S7.3,18.77,7.3,18.77Z"/>
      <path class="cls-4" d="m237.6,17.71h-21.15s-.74,16.86-1.07,16.01,22.22-16.01,22.22-16.01Z"/>
      <rect class="cls-6" y="8.03" width="242.39" height="10.74"/>
      <path class="cls-3" d="m23.16,0h198.87c2.79,0,5.06,2.27,5.06,5.06v3.07H18.09v-3.07c0-2.79,2.27-5.06,5.06-5.06Z"/>
      <path class="cls-4" d="m83.53,18.8h4v9.25c0,.59-.48,1.07-1.07,1.07h-1.86c-.59,0-1.07-.48-1.07-1.07v-9.25h0Z"/>
      <path class="cls-4" d="m159.07,18.86h4v9.25c0,.59-.48,1.07-1.07,1.07h-1.86c-.59,0-1.07-.48-1.07-1.07v-9.25h0Z"/>
      <rect class="cls-5" x="178.33" y="156.37" width="10.24" height="26.25" rx="5.12" ry="5.12"/>
      <rect class="cls-5" x="53.82" y="156.37" width="10.24" height="26.25" rx="5.12" ry="5.12"/>
  </g>
</svg>
