<?xml version="1.0" encoding="UTF-8"?>
<svg xmlns="http://www.w3.org/2000/svg" viewBox="0 0 115.51 160.42" width="262" height="227">
    <defs>
        <style>
            .cls-1 {
            fill: #COLOR_1; <!-- Front -->
            }
            .cls-2 {
            fill: #000000; <!-- Tires -->
            }
            .cls-3 {
            fill: #198041; <!-- Border -->
            }
            .cls-4 {
            fill: #115629; <!-- support -->
            }
            .cls-5 {
            fill: #0c9139; <!-- Saum -->
            }
        </style>
    </defs>
    <g>
        <rect class="cls-2" x="9.32" y="125.2" width="11.06" height="29.84" rx="5.53" ry="5.53"/>
        <rect class="cls-2" x="95.08" y="125.2" width="11.06" height="30.04" rx="5.53" ry="5.53"/>
        <path class="cls-3"
              d="m91.24,160.42H24.14c-3.29,0-5.98-2.62-6.07-5.9L14.51,24.23h85.76l-2.95,130.26c-.07,3.3-2.77,5.93-6.07,5.93Z"/>
        <path class="cls-1"
              d="m82.5,155.85H31.79c-2.48,0-4.52-2.53-4.59-5.71l-2.69-125.91h64.81l-2.23,125.88c-.06,3.19-2.09,5.73-4.59,5.73Z"/>
        <path class="cls-4" d="m4.43,24.23h10.08s.35,16.86.51,16.01S4.43,24.23,4.43,24.23Z"/>
        <path class="cls-4" d="m110.34,24.23h-10.08s-.35,16.86-.51,16.01,10.59-16.01,10.59-16.01Z"/>
        <rect class="cls-5" y="13.49" width="115.51" height="10.74"/>
        <path class="cls-3"
              d="m15.12,5.46h84.97c2.79,0,5.06,2.27,5.06,5.06v3.07H10.05v-3.07c0-2.79,2.27-5.06,5.06-5.06Z"/>
        <rect class="cls-3" x="20.13" y="0" width="2.96" height="6.68" rx="1.48"
              ry="1.48"/>
        <rect class="cls-3" x="89.32" y="0" width="2.96" height="6.68" rx="1.48"
              ry="1.48"/>
        <path class="cls-3"
              d="m36.94.39h37.95c2.79,0,5.06,2.27,5.06,5.06H31.88c0-2.79,2.27-5.06,5.06-5.06Z"/>
        <path class="cls-4"
              d="m39.8,24.26h2.14v9.25c0,.59-.48,1.07-1.07,1.07h0c-.59,0-1.07-.48-1.07-1.07v-9.25h0Z"/>
        <path class="cls-4"
              d="m74.04,24.32h2.14v9.25c0,.59-.48,1.07-1.07,1.07h0c-.59,0-1.07-.48-1.07-1.07v-9.25h0Z"/>
    </g>
</svg>
